<svg xmlns="http://www.w3.org/2000/svg" style="display:none" aria-hidden="true">
	<symbol id="icon-x" viewBox="0 0 24 24" fill="none" stroke="currentColor" stroke-width="2" stroke-linecap="round" stroke-linejoin="round">
		<path d="M18 6 6 18"/>
		<path d="m6 6 12 12"/>
	</symbol>

	<symbol id="icon-paint-roller" viewBox="0 0 24 24" fill="none" stroke="currentColor" stroke-width="2" stroke-linecap="round" stroke-linejoin="round">
		<rect width="16" height="6" x="2" y="2" rx="2"/>
		<path d="M10 16v-2a2 2 0 0 1 2-2h8a2 2 0 0 0 2-2V7a2 2 0 0 0-2-2h-2"/>
		<rect width="4" height="6" x="8" y="16" rx="1"/>
	</symbol>

	<symbol id="icon-linkedin" viewBox="0 0 24 24" fill="none" stroke="currentColor" stroke-width="2" stroke-linecap="round" stroke-linejoin="round">
		<path d="M16 8a6 6 0 0 1 6 6v7h-4v-7a2 2 0 0 0-2-2 2 2 0 0 0-2 2v7h-4v-7a6 6 0 0 1 6-6z"/>
		<rect width="4" height="12" x="2" y="9"/>
		<circle cx="4" cy="4" r="2"/>
	</symbol>

	<symbol id="icon-github" viewBox="0 0 24 24" fill="none" stroke="currentColor" stroke-width="2" stroke-linecap="round" stroke-linejoin="round">
		<path d="M15 22v-4a4.8 4.8 0 0 0-1-3.5c3 0 6-2 6-5.5.08-1.25-.27-2.48-1-3.5.28-1.15.28-2.35 0-3.5 0 0-1 0-3 1.5-2.64-.5-5.36-.5-8 0C6 2 5 2 5 2c-.3 1.15-.3 2.35 0 3.5A5.403 5.403 0 0 0 4 9c0 3.5 3 5.5 6 5.5-.39.49-.68 1.05-.85 1.65-.17.6-.22 1.23-.15 1.85v4"/>
		<path d="M9 18c-4.51 2-5-2-7-2"/>
	</symbol>

	<symbol id="icon-external-link" viewBox="0 0 24 24" fill="none" stroke="currentColor" stroke-width="2" stroke-linecap="round" stroke-linejoin="round">
		<path d="M14 3h7v7"/>
		<path d="M10 14 21 3"/>
		<path d="M21 14v4a3 3 0 0 1-3 3H6a3 3 0 0 1-3-3V6a3 3 0 0 1 3-3h4"/>
	</symbol>

	<symbol id="icon-html" viewBox="0 0 16 16">
		<path fill-rule="nonzero" clip-rule="nonzero" d="M3 1.5C2.86193 1.5 2.75 1.61193 2.75 1.75V11.3003C2.75 11.3896 2.79769 11.4722 2.87509 11.5168L7.73381 14.3194C7.80942 14.363 7.90231 14.364 7.97886 14.3221L13.1201 11.5048C13.2002 11.4609 13.25 11.3769 13.25 11.2856V1.75C13.25 1.61193 13.1381 1.5 13 1.5H3ZM1.25 1.75C1.25 0.783502 2.0335 0 3 0H13C13.9665 0 14.75 0.783503 14.75 1.75V11.2856C14.75 11.9248 14.4015 12.5131 13.841 12.8203L8.69968 15.6375C8.16383 15.9311 7.51363 15.924 6.98434 15.6187L2.12562 12.8162C1.58382 12.5037 1.25 11.9258 1.25 11.3003V1.75ZM5 4.25C5 3.83579 5.33579 3.5 5.75 3.5H10.3654C10.7796 3.5 11.1154 3.83579 11.1154 4.25C11.1154 4.66421 10.7796 5 10.3654 5H6.5V6.71154H10.3654C10.7796 6.71154 11.1154 7.04732 11.1154 7.46154V10.3462C11.1154 10.6302 10.9549 10.8899 10.7008 11.017L8.3931 12.1708C8.18196 12.2764 7.93343 12.2764 7.72228 12.1708L5.41459 11.017C5.1605 10.8899 5 10.6302 5 10.3462V9.76923C5 9.35502 5.33579 9.01923 5.75 9.01923C6.16421 9.01923 6.5 9.35502 6.5 9.76923V9.88263L8.05769 10.6615L9.61539 9.88263V8.21154H5.75C5.33579 8.21154 5 7.87575 5 7.46154V4.25Z" fill="currentColor"/>
	</symbol>

    <symbol id="icon-css" viewBox="0 0 16 16">
		<path fill-rule="nonzero" clip-rule="nonzero" d="M3 1.60001C2.86193 1.60001 2.75 1.71193 2.75 1.85001V11.4003C2.75 11.4896 2.79769 11.5722 2.87509 11.6168L7.73381 14.4194C7.80942 14.463 7.90231 14.464 7.97886 14.4221L13.1201 11.6048C13.2002 11.5609 13.25 11.4769 13.25 11.3856V1.85001C13.25 1.71193 13.1381 1.60001 13 1.60001H3ZM1.25 1.85001C1.25 0.883508 2.0335 0.100006 3 0.100006H13C13.9665 0.100006 14.75 0.883509 14.75 1.85001V11.3856C14.75 12.0248 14.4015 12.6131 13.841 12.9203L8.69968 15.7375C8.16383 16.0311 7.51363 16.024 6.98434 15.7187L2.12562 12.9162C1.58382 12.6037 1.25 12.0258 1.25 11.4003V1.85001ZM5 4.35001C5 3.93579 5.33579 3.60001 5.75 3.60001H10.3654C10.7796 3.60001 11.1154 3.93579 11.1154 4.35001V10.4462C11.1154 10.7302 10.9549 10.9899 10.7008 11.117L8.3931 12.2708C8.18196 12.3764 7.93343 12.3764 7.72228 12.2708L5.41459 11.117C5.1605 10.9899 5 10.7302 5 10.4462V9.86924C5 9.45502 5.33579 9.11924 5.75 9.11924C6.16421 9.11924 6.5 9.45502 6.5 9.86924V9.98263L8.05769 10.7615L9.61539 9.98263V8.31154H7C6.58579 8.31154 6.25 7.97576 6.25 7.56154C6.25 7.14733 6.58579 6.81154 7 6.81154H9.61539V5.10001H5.75C5.33579 5.10001 5 4.76422 5 4.35001Z" fill="currentColor"/>
	</symbol>

	<symbol id="icon-javascript" viewBox="0 0 16 16">
		<path fill-rule="nonzero" clip-rule="nonzero" d="M0 1.75C0 0.783501 0.783502 0 1.75 0H14.25C15.2165 0 16 0.783502 16 1.75V3.75C16 4.16421 15.6642 4.5 15.25 4.5C14.8358 4.5 14.5 4.16421 14.5 3.75V1.75C14.5 1.61193 14.3881 1.5 14.25 1.5H1.75C1.61193 1.5 1.5 1.61193 1.5 1.75V14.25C1.5 14.3881 1.61193 14.5 1.75 14.5H15.25C15.6642 14.5 16 14.8358 16 15.25C16 15.6642 15.6642 16 15.25 16H1.75C0.783501 16 0 15.2165 0 14.25V1.75ZM8.25 5.75C8.66421 5.75 9 6.08579 9 6.5V10.5C9 11.5048 8.72399 12.2584 8.15514 12.7324C7.61223 13.1848 6.95384 13.25 6.5 13.25C6.08579 13.25 5.75 12.9142 5.75 12.5C5.75 12.0858 6.08579 11.75 6.5 11.75C6.84617 11.75 7.06277 11.6902 7.19486 11.5801C7.301 11.4916 7.5 11.2452 7.5 10.5V6.5C7.5 6.08579 7.83578 5.75 8.25 5.75ZM11.2757 6.58011C11.6944 6.08164 12.3507 5.75 13.25 5.75C14.0849 5.75 14.7148 6.03567 15.1394 6.48481C15.4239 6.78583 15.4105 7.26052 15.1095 7.54505C14.8085 7.82958 14.3338 7.81621 14.0493 7.51519C13.9394 7.39898 13.7204 7.25 13.25 7.25C12.7493 7.25 12.5306 7.41836 12.4243 7.54489C12.2934 7.70065 12.25 7.896 12.25 8C12.25 8.104 12.2934 8.29935 12.4243 8.45511C12.5306 8.58164 12.7493 8.75 13.25 8.75C13.3257 8.75 13.3988 8.76121 13.4676 8.78207C14.1307 8.87646 14.6319 9.17251 14.9743 9.58011C15.3684 10.0493 15.5 10.604 15.5 11C15.5 11.396 15.3684 11.9507 14.9743 12.4199C14.5556 12.9184 13.8993 13.25 13 13.25C12.1651 13.25 11.5352 12.9643 11.1106 12.5152C10.8261 12.2142 10.8395 11.7395 11.1405 11.4549C11.4415 11.1704 11.9162 11.1838 12.2007 11.4848C12.3106 11.601 12.5296 11.75 13 11.75C13.5007 11.75 13.7194 11.5816 13.8257 11.4551C13.9566 11.2993 14 11.104 14 11C14 10.896 13.9566 10.7007 13.8257 10.5449C13.7194 10.4184 13.5007 10.25 13 10.25C12.9243 10.25 12.8512 10.2388 12.7824 10.2179C12.1193 10.1235 11.6181 9.82749 11.2757 9.41989C10.8816 8.95065 10.75 8.396 10.75 8C10.75 7.604 10.8816 7.04935 11.2757 6.58011Z" fill="currentColor"/>
	</symbol>

	<symbol id="icon-typescript" viewBox="0 0 16 16">
		<path fill-rule="nonzero" clip-rule="nonzero" d="M0 1.75C0 0.783501 0.783502 0 1.75 0H14.25C15.2165 0 16 0.783502 16 1.75V3.75C16 4.16421 15.6642 4.5 15.25 4.5C14.8358 4.5 14.5 4.16421 14.5 3.75V1.75C14.5 1.61193 14.3881 1.5 14.25 1.5H1.75C1.61193 1.5 1.5 1.61193 1.5 1.75V14.25C1.5 14.3881 1.61193 14.5 1.75 14.5H15.25C15.6642 14.5 16 14.8358 16 15.25C16 15.6642 15.6642 16 15.25 16H1.75C0.783501 16 0 15.2165 0 14.25V1.75ZM4.75 6.5C4.75 6.08579 5.08579 5.75 5.5 5.75H9.25C9.66421 5.75 10 6.08579 10 6.5C10 6.91421 9.66421 7.25 9.25 7.25H8.25V12.5C8.25 12.9142 7.91421 13.25 7.5 13.25C7.08579 13.25 6.75 12.9142 6.75 12.5V7.25H5.5C5.08579 7.25 4.75 6.91421 4.75 6.5ZM11.2757 6.58011C11.6944 6.08164 12.3507 5.75 13.25 5.75C14.0849 5.75 14.7148 6.03567 15.1394 6.48481C15.4239 6.78583 15.4105 7.26052 15.1095 7.54505C14.8085 7.82958 14.3338 7.81621 14.0493 7.51519C13.9394 7.39898 13.7204 7.25 13.25 7.25C12.7493 7.25 12.5306 7.41836 12.4243 7.54489C12.2934 7.70065 12.25 7.896 12.25 8C12.25 8.104 12.2934 8.29935 12.4243 8.45511C12.5306 8.58164 12.7493 8.75 13.25 8.75C13.3257 8.75 13.3988 8.76121 13.4676 8.78207C14.1307 8.87646 14.6319 9.17251 14.9743 9.58011C15.3684 10.0493 15.5 10.604 15.5 11C15.5 11.396 15.3684 11.9507 14.9743 12.4199C14.5556 12.9184 13.8993 13.25 13 13.25C12.1651 13.25 11.5352 12.9643 11.1106 12.5152C10.8261 12.2142 10.8395 11.7395 11.1405 11.4549C11.4415 11.1704 11.9162 11.1838 12.2007 11.4848C12.3106 11.601 12.5296 11.75 13 11.75C13.5007 11.75 13.7194 11.5816 13.8257 11.4551C13.9566 11.2993 14 11.104 14 11C14 10.896 13.9566 10.7007 13.8257 10.5449C13.7194 10.4184 13.5007 10.25 13 10.25C12.9243 10.25 12.8512 10.2388 12.7824 10.2179C12.1193 10.1235 11.6181 9.82749 11.2757 9.41989C10.8816 8.95065 10.75 8.396 10.75 8C10.75 7.604 10.8816 7.04935 11.2757 6.58011Z" fill="currentColor"/>
	</symbol>

    <symbol id="icon-react" viewBox="0 0 16 16">
		<path fill-rule="nonzero" clip-rule="nonzero" d="M4.84989 2.37195C4.59895 2.51683 4.33488 2.91636 4.30424 3.78785C4.28968 4.20181 3.9423 4.52559 3.52835 4.51103C3.11439 4.49647 2.79061 4.1491 2.80516 3.73514C2.84273 2.66673 3.1806 1.60366 4.09989 1.07291C5.02179 0.540653 6.11484 0.782356 7.06128 1.28727C7.42674 1.48224 7.56495 1.93656 7.36998 2.30201C7.17501 2.66747 6.72069 2.80568 6.35524 2.61072C5.5818 2.1981 5.10158 2.22663 4.84989 2.37195ZM8.87139 3.67284C9.19036 3.40858 9.66315 3.45293 9.92741 3.7719C10.4818 4.44103 11.0136 5.20405 11.4963 6.04018C12.5366 7.84191 13.178 9.68785 13.3509 11.2362C13.4372 12.0091 13.4108 12.7446 13.2303 13.3754C13.0484 14.011 12.6941 14.5863 12.0999 14.9293C11.381 15.3444 10.5509 15.2855 9.79114 15.0089C9.02868 14.7313 8.24395 14.2056 7.49586 13.5228C7.18993 13.2435 7.16831 12.7691 7.44756 12.4632C7.72681 12.1573 8.20119 12.1356 8.50712 12.4149C9.16624 13.0165 9.78567 13.4105 10.3043 13.5994C10.8257 13.7892 11.1537 13.7436 11.3499 13.6303C11.5143 13.5354 11.6797 13.342 11.7882 12.9627C11.8981 12.5787 11.9328 12.0529 11.8602 11.4026C11.7152 10.1045 11.1591 8.45607 10.1973 6.79018C9.75492 6.02396 9.27081 5.33055 8.77232 4.72886C8.50807 4.40989 8.55242 3.93709 8.87139 3.67284Z" fill="currentColor"/>
		<path fill-rule="nonzero" clip-rule="nonzero" d="M14.5 8.20557C14.5 7.91581 14.286 7.48735 13.5466 7.02507C13.1954 6.80549 13.0887 6.34276 13.3083 5.99154C13.5279 5.64032 13.9906 5.53361 14.3418 5.75319C15.2483 6.31993 16 7.14407 16 8.20557C16 9.27009 15.2442 10.0958 14.3337 10.663C13.9821 10.882 13.5195 10.7746 13.3005 10.423C13.0815 10.0714 13.189 9.60887 13.5405 9.38985C14.2846 8.92635 14.5 8.4962 14.5 8.20557ZM11.3626 11.0378C11.432 11.4462 11.1572 11.8335 10.7488 11.9029C9.89219 12.0484 8.96547 12.1274 8 12.1274C5.91954 12.1274 4.00018 11.76 2.57286 11.1355C1.86032 10.8238 1.23659 10.4332 0.780529 9.9615C0.320977 9.48616 0 8.89166 0 8.20557C0 7.37549 0.466082 6.68599 1.08548 6.16636C1.70712 5.64485 2.55471 5.22808 3.52013 4.92164C3.91494 4.79633 4.33657 5.01479 4.46189 5.40959C4.5872 5.80439 4.36874 6.22603 3.97394 6.35135C3.12334 6.62134 2.4724 6.96078 2.04954 7.31553C1.62442 7.67217 1.5 7.97899 1.5 8.20557C1.5 8.39536 1.58476 8.6353 1.85895 8.91891C2.13663 9.20613 2.57464 9.49905 3.17409 9.76131C4.37076 10.2848 6.07639 10.6274 8 10.6274C8.88475 10.6274 9.72732 10.5549 10.4976 10.424C10.906 10.3547 11.2933 10.6295 11.3626 11.0378Z" fill="currentColor"/>
		<path fill-rule="nonzero" clip-rule="nonzero" d="M4.87192 13.6303C5.12286 13.7752 5.6009 13.8041 6.37095 13.3949C6.73673 13.2005 7.19082 13.3395 7.38519 13.7052C7.57957 14.071 7.44062 14.5251 7.07484 14.7195C6.13079 15.2211 5.04121 15.4601 4.12192 14.9293C3.20003 14.3971 2.86282 13.3296 2.82687 12.2575C2.81299 11.8435 3.13733 11.4967 3.55131 11.4828C3.96529 11.4689 4.31215 11.7932 4.32603 12.2072C4.35541 13.0834 4.62023 13.485 4.87192 13.6303ZM3.98778 9.49712C3.59944 9.35301 3.40145 8.92138 3.54556 8.53304C3.84786 7.71839 4.24274 6.8763 4.72548 6.04018C5.76571 4.23845 7.04361 2.75996 8.29806 1.83609C8.92431 1.37487 9.57441 1.02999 10.211 0.870901C10.8524 0.71059 11.5278 0.729863 12.1219 1.07291C12.8408 1.48795 13.2049 2.23634 13.3452 3.03257C13.486 3.83168 13.4232 4.77409 13.2058 5.7634C13.1169 6.16796 12.7169 6.42388 12.3124 6.33501C11.9078 6.24613 11.6519 5.84612 11.7408 5.44155C11.9322 4.56992 11.9637 3.83647 11.868 3.29288C11.7717 2.7464 11.5681 2.48524 11.3719 2.37195C11.2076 2.27705 10.9574 2.23049 10.5747 2.32614C10.1871 2.42301 9.71442 2.65588 9.18757 3.04388C8.13584 3.81846 6.98632 5.12428 6.02452 6.79018C5.58214 7.55639 5.22369 8.32235 4.95185 9.0549C4.80774 9.44323 4.37611 9.64122 3.98778 9.49712Z" fill="currentColor"/>
		<path d="M9.45925 8.06618C9.45925 8.81694 8.85063 9.42556 8.09987 9.42556C7.34911 9.42556 6.7405 8.81694 6.7405 8.06618C6.7405 7.31542 7.34911 6.70681 8.09987 6.70681C8.85063 6.70681 9.45925 7.31542 9.45925 8.06618Z" fill="currentColor"/>
	</symbol>

    <symbol id="icon-tailwind" viewBox="0 0 32 32" fill="currentColor">
		<path d="M9,13.7q1.4-5.6,7-5.6c5.6,0,6.3,4.2,9.1,4.9q2.8.7,4.9-2.1-1.4,5.6-7,5.6c-5.6,0-6.3-4.2-9.1-4.9Q11.1,10.9,9,13.7ZM2,22.1q1.4-5.6,7-5.6c5.6,0,6.3,4.2,9.1,4.9q2.8.7,4.9-2.1-1.4,5.6-7,5.6c-5.6,0-6.3-4.2-9.1-4.9Q4.1,19.3,2,22.1Z"/>
	</symbol>

    <symbol id="icon-django" viewBox="0 0 512 512">
		<path d="M321.38,0.5h-83.553v127.405c-12.483-3.253-22.786-4.338-36.354-4.338c-87.349,0-143.781,55.34-143.781,140.52c0,88.441,53.176,134.556,155.181,134.556c34.165,0,65.639-3.254,108.508-11.392V0.5z M237.827,329.203c-11.938,1.623-19.533,2.162-28.755,2.162c-42.865,0-66.197-24.409-66.197-68.904c0-45.573,24.413-71.616,66.743-71.616c10.303,0,18.437,1.084,28.209,4.338V329.203z M454.309,0.949v85.726h-83.557V0.949H454.309z M370.752,129.532h83.557v193.699c0,66.735-4.889,98.743-19.537,126.417c-13.56,26.59-31.466,43.403-68.365,61.852l-77.589-36.896c36.889-17.359,54.81-32.542,66.197-55.883c11.934-23.874,15.737-51.544,15.737-124.252V129.532z" fill="currentColor"/>
	</symbol>

	<symbol id="icon-php" viewBox="0 0 16 16">
		<path fill-rule="nonzero" clip-rule="nonzero" d="M7.19792 3.06C5.60434 3.06 4.3125 4.34978 4.3125 5.9408V12.3472C4.3125 13.5362 3.34711 14.5 2.15625 14.5C0.965386 14.5 0 13.5362 0 12.3472C0 11.9164 0.349778 11.5672 0.78125 11.5672C1.21272 11.5672 1.5625 11.9164 1.5625 12.3472C1.5625 12.6746 1.82833 12.94 2.15625 12.94C2.48417 12.94 2.75 12.6746 2.75 12.3472V5.9408C2.75 3.48821 4.7414 1.5 7.19792 1.5C9.22509 1.5 10.9355 2.85396 11.4715 4.70551C13.9858 4.78385 16 6.84348 16 9.3728C16 9.41167 15.9972 9.44987 15.9917 9.48721C15.9972 9.52454 16 9.56274 16 9.6016V13.72C16 14.1508 15.6502 14.5 15.2187 14.5H7.19792C6.76644 14.5 6.41667 14.1508 6.41667 13.72V9.6016C6.41667 9.17082 6.76644 8.8216 7.19792 8.8216C8.79149 8.8216 10.0833 7.53182 10.0833 5.9408C10.0833 4.34978 8.79149 3.06 7.19792 3.06ZM14.4458 9.48719C14.4403 9.44986 14.4375 9.41166 14.4375 9.3728C14.4375 7.75995 13.2076 6.43389 11.6332 6.27844C11.48 8.3122 9.95487 9.96383 7.97917 10.3133V12.94H10.4271V11.2032C10.4271 10.7724 10.7769 10.4232 11.2083 10.4232C11.6398 10.4232 11.9896 10.7724 11.9896 11.2032V12.94H14.4375V9.6016C14.4375 9.56274 14.4403 9.52453 14.4458 9.48719Z" fill="currentColor"/>
	</symbol>

	<symbol id="icon-nodejs" viewBox="0 0 16 16">
		<path fill-rule="nonzero" clip-rule="nonzero" d="M7.58638 0.102166C7.8199 -0.0340553 8.10867 -0.0340553 8.34219 0.102166L14.5565 3.72717C14.7869 3.86157 14.9286 4.10825 14.9286 4.375V11.625C14.9286 11.8918 14.7869 12.1384 14.5565 12.2728L8.34219 15.8978C8.10867 16.0341 7.8199 16.0341 7.58638 15.8978L6.03281 14.9916C5.67502 14.7829 5.55417 14.3236 5.76288 13.9658C5.97159 13.6081 6.43083 13.4872 6.78862 13.6959L7.96429 14.3817L13.4286 11.1942V4.80578L7.96429 1.61828L2.5 4.80578V11.1942L3.6168 11.8457C3.96098 11.9561 4.38611 11.9831 4.68576 11.8507C4.82477 11.7893 4.95031 11.6893 5.04968 11.5107C5.15426 11.3227 5.25 11.0098 5.25 10.5V5.25C5.25 4.83579 5.58579 4.5 6 4.5C6.41421 4.5 6.75 4.83579 6.75 5.25V10.5C6.75 11.1902 6.62104 11.7716 6.36047 12.2399C6.09471 12.7176 5.71466 13.036 5.29192 13.2228C4.48562 13.579 3.59523 13.433 3.04999 13.2371C3.00686 13.2216 2.96525 13.2022 2.92567 13.1791L1.3721 12.2728C1.14168 12.1384 1 11.8918 1 11.625V4.375C1 4.10825 1.14168 3.86157 1.3721 3.72717L7.58638 0.102166ZM8.24655 5.28323C8.64339 4.81081 9.26318 4.5 10.1042 4.5C10.8847 4.5 11.4792 4.76756 11.8815 5.19314C12.166 5.49417 12.1527 5.96885 11.8516 6.25338C11.5506 6.53792 11.0759 6.52455 10.7914 6.22352C10.7038 6.13087 10.5202 6 10.1042 6C9.66182 6 9.47952 6.14753 9.39511 6.24802C9.28615 6.37774 9.25 6.54184 9.25 6.625C9.25 6.70816 9.28615 6.87226 9.39511 7.00198C9.47952 7.10247 9.66182 7.25 10.1042 7.25C10.1782 7.25 10.2497 7.26073 10.3173 7.28072C10.9368 7.37001 11.4089 7.64784 11.7326 8.03323C12.1049 8.47643 12.2292 8.99983 12.2292 9.375C12.2292 9.75017 12.1049 10.2736 11.7326 10.7168C11.3358 11.1892 10.716 11.5 9.87501 11.5C9.0945 11.5 8.49996 11.2324 8.09768 10.8069C7.81315 10.5058 7.82652 10.0311 8.12755 9.74662C8.42857 9.46208 8.90325 9.47546 9.18779 9.77648C9.27536 9.86913 9.459 10 9.87501 10C10.3174 10 10.4997 9.85247 10.5841 9.75198C10.693 9.62226 10.7292 9.45816 10.7292 9.375C10.7292 9.29184 10.693 9.12774 10.5841 8.99802C10.4997 8.89753 10.3174 8.75 9.87501 8.75C9.80097 8.75 9.72943 8.73927 9.66188 8.71928C9.04237 8.62999 8.57028 8.35216 8.24655 7.96677C7.87427 7.52357 7.75 7.00017 7.75 6.625C7.75 6.24983 7.87427 5.72643 8.24655 5.28323Z" fill="currentColor"/>
	</symbol>

	<symbol id="icon-csharp" viewBox="0 0 16 16">
		<path fill-rule="nonzero" clip-rule="nonzero" d="M7.00017 5.5C5.61936 5.5 4.5 6.61936 4.5 8.00017C4.5 9.38097 5.61936 10.5003 7.00017 10.5003C7.71226 10.5003 8.3538 10.2036 8.81009 9.725C9.09591 9.4252 9.57065 9.41386 9.87045 9.69968C10.1703 9.9855 10.1816 10.4602 9.89577 10.76C9.16817 11.5232 8.13926 12.0003 7.00017 12.0003C4.79094 12.0003 3 10.2094 3 8.00017C3 5.79094 4.79094 4 7.00017 4C8.13445 4 9.15952 4.47309 9.88658 5.23069C10.1734 5.52954 10.1636 6.00432 9.86477 6.29112C9.56591 6.57793 9.09114 6.56817 8.80433 6.26931C8.3484 5.79424 7.70928 5.5 7.00017 5.5Z" fill="currentColor"/>
		<path fill-rule="nonzero" clip-rule="nonzero" d="M6.58638 0.102166C6.8199 -0.0340553 7.10867 -0.0340553 7.34219 0.102166L12.0565 2.85217C12.4143 3.06088 12.5351 3.52011 12.3264 3.8779C12.1177 4.23569 11.6585 4.35654 11.3007 4.14783L6.96429 1.61828L1.5 4.80578V11.1942L6.96429 14.3817L11.3007 11.8522C11.6585 11.6435 12.1177 11.7643 12.3264 12.1221C12.5351 12.4799 12.4143 12.9391 12.0565 13.1478L7.34219 15.8978C7.10867 16.0341 6.8199 16.0341 6.58638 15.8978L0.372097 12.2728C0.141683 12.1384 0 11.8918 0 11.625V4.375C0 4.10825 0.141683 3.86157 0.372097 3.72717L6.58638 0.102166Z" fill="currentColor"/>
		<path fill-rule="nonzero" clip-rule="nonzero" d="M12.1799 5.25C12.456 5.25 12.6799 5.47386 12.6799 5.75V10.25C12.6799 10.5261 12.456 10.75 12.1799 10.75C11.9038 10.75 11.6799 10.5261 11.6799 10.25V5.75C11.6799 5.47386 11.9038 5.25 12.1799 5.25Z" fill="currentColor"/>
		<path fill-rule="nonzero" clip-rule="nonzero" d="M14.3201 5.25C14.5962 5.25 14.8201 5.47386 14.8201 5.75V10.25C14.8201 10.5261 14.5962 10.75 14.3201 10.75C14.044 10.75 13.8201 10.5261 13.8201 10.25V5.75C13.8201 5.47386 14.044 5.25 14.3201 5.25Z" fill="currentColor"/>
		<path fill-rule="nonzero" clip-rule="nonzero" d="M10.5 6.92993C10.5 6.65379 10.7239 6.42993 11 6.42993H15.5C15.7761 6.42993 16 6.65379 16 6.92993C16 7.20607 15.7761 7.42993 15.5 7.42993H11C10.7239 7.42993 10.5 7.20607 10.5 6.92993Z" fill="currentColor"/>
		<path fill-rule="nonzero" clip-rule="nonzero" d="M10.5 9.07007C10.5 8.79393 10.7239 8.57007 11 8.57007H15.5C15.7761 8.57007 16 8.79393 16 9.07007C16 9.34621 15.7761 9.57007 15.5 9.57007H11C10.7239 9.57007 10.5 9.34621 10.5 9.07007Z" fill="currentColor"/>
	</symbol>

    <symbol id="icon-api" viewBox="0 0 24 24" fill="currentColor">
		<path d="M20,6H4A2,2,0,0,0,2,8v8a2,2,0,0,0,2,2H20a2,2,0,0,0,2-2V8A2,2,0,0,0,20,6ZM9.29,14.8,9,13.73H7.16L6.87,14.8H5.17L7,9.07H9.09L11,14.8Zm6.34-3.14a1.7,1.7,0,0,1-.36.64,1.82,1.82,0,0,1-.67.44,2.75,2.75,0,0,1-1,.17h-.44V14.8H11.6V9.09h2a2.43,2.43,0,0,1,1.62.47,1.67,1.67,0,0,1,.55,1.35A2.36,2.36,0,0,1,15.63,11.66Zm2.58,3.14H16.66V9.09h1.55ZM8.45,11.53l.24.93H7.48l.24-.93c0-.13.08-.28.12-.47s.09-.38.13-.57a4.63,4.63,0,0,0,.1-.48c0,.13.07.29.11.5l.15.58Zm5.59-1a.57.57,0,0,1,.16.43.75.75,0,0,1-.11.42.59.59,0,0,1-.27.22.9.9,0,0,1-.37.07h-.31V10.34h.4A.63.63,0,0,1,14,10.51Z" fill-rule="evenodd"/>
	</symbol>

	<symbol id="icon-python" viewBox="0 0 16 16">
		<path d="M5.79 1.574h3.866c.14 0 .252.11.252.246v5.186a.25.25 0 01-.252.246H6.344c-.975 0-1.766.77-1.766 1.72v1.162a.25.25 0 01-.253.243H1.867a.25.25 0 01-.253-.246V6.177a.25.25 0 01.252-.246H7.98c.418 0 .757-.33.757-.737a.747.747 0 00-.757-.738H5.537V1.82a.25.25 0 01.253-.246zm5.632 2.592V1.82c0-.95-.79-1.72-1.766-1.72H5.79c-.976 0-1.767.77-1.767 1.72v2.636H1.867C.89 4.456.1 5.226.1 6.176v3.955c0 .95.79 1.72 1.766 1.72h2.46c.085 0 .17-.006.252-.017v2.346c0 .95.79 1.72 1.766 1.72h3.866c.976 0 1.767-.77 1.767-1.72v-2.636h2.156c.976 0 1.767-.77 1.767-1.72V5.868c0-.95-.79-1.72-1.767-1.72h-2.458c-.086 0-.17.005-.253.017zm-5.33 5.974V8.994a.25.25 0 01.252-.246h3.312c.976 0 1.766-.77 1.766-1.72V5.866a.25.25 0 01.253-.243h2.458c.14 0 .253.11.253.246v3.954a.25.25 0 01-.252.246H8.02a.747.747 0 00-.757.737c0 .408.339.738.757.738h2.442v2.636a.25.25 0 01-.253.246H6.344a.25.25 0 01-.252-.246v-4.04z" fill="currentColor"/>
	</symbol>

	<symbol id="icon-database" viewBox="0 0 24 24" fill="none">
		<path d="M4 18V6" stroke="currentColor" stroke-width="1.5" stroke-linecap="round"/>
		<path d="M20 6V18" stroke="currentColor" stroke-width="1.5" stroke-linecap="round"/>
		<path d="M12 10C16.4183 10 20 8.20914 20 6C20 3.79086 16.4183 2 12 2C7.58172 2 4 3.79086 4 6C4 8.20914 7.58172 10 12 10Z" stroke="currentColor" stroke-width="1.5"/>
		<path d="M20 12C20 14.2091 16.4183 16 12 16C7.58172 16 4 14.2091 4 12" stroke="currentColor" stroke-width="1.5"/>
		<path d="M20 18C20 20.2091 16.4183 22 12 22C7.58172 22 4 20.2091 4 18" stroke="currentColor" stroke-width="1.5"/>
	</symbol>

    <symbol id="icon-git" viewBox="0 0 256 256">
		<path d="M251.172 116.594L139.4 4.828c-6.433-6.437-16.873-6.437-23.314 0l-23.21 23.21 29.443 29.443c6.842-2.312 14.688-.761 20.142 4.693 5.48 5.489 7.02 13.402 4.652 20.266l28.375 28.376c6.865-2.365 14.786-.835 20.269 4.657 7.663 7.66 7.663 20.075 0 27.74-7.665 7.666-20.08 7.666-27.749 0-5.764-5.77-7.188-14.235-4.27-21.336l-26.462-26.462-.003 69.637a19.82 19.82 0 0 1 5.188 3.71c7.663 7.66 7.663 20.076 0 27.747-7.665 7.662-20.086 7.662-27.74 0-7.663-7.671-7.663-20.086 0-27.746a19.654 19.654 0 0 1 6.421-4.281V94.196a19.378 19.378 0 0 1-6.421-4.281c-5.806-5.798-7.202-14.317-4.227-21.446L81.47 39.442l-76.64 76.635c-6.44 6.443-6.44 16.884 0 23.322l111.774 111.768c6.435 6.438 16.873 6.438 23.316 0l111.251-111.249c6.438-6.44 6.438-16.887 0-23.324" fill="currentColor"/>
	</symbol>

    <symbol id="icon-docker" viewBox="0 0 16 16">
		<path fill-rule="nonzero" clip-rule="nonzero" d="M5.46619 2.00322C5.46619 1.44916 5.91535 1 6.46941 1H9.47907C10.0331 1 10.4823 1.44915 10.4823 2.00322V5.01288C10.4823 5.09948 10.4713 5.18352 10.4507 5.26368C10.4713 5.34385 10.4823 5.42789 10.4823 5.51449V8.02254H11.7363V6.0161C11.7363 5.60055 12.0732 5.26368 12.4887 5.26368C12.9043 5.26368 13.2411 5.60055 13.2411 6.0161V8.02254H15.2476C15.6631 8.02254 16 8.35941 16 8.77495C16 9.1905 15.6631 9.52737 15.2476 9.52737H13.2113C13.0634 11.3518 12.3727 12.8078 11.2779 13.8375C10.045 14.9972 8.37374 15.5467 6.59481 15.5467C4.97058 15.5467 3.43674 15.0891 2.24224 14.1255C1.03896 13.1549 0.236443 11.7155 0.0125343 9.86728C-0.115917 8.80699 0.763545 8.02254 1.70412 8.02254H1.95492V5.51449C1.95492 4.96043 2.40408 4.51127 2.95814 4.51127H5.46619V2.00322ZM5.46619 6.0161H3.45975V8.02254H5.46619V6.0161ZM1.70412 9.52737C1.63196 9.52737 1.57447 9.55683 1.54064 9.59191C1.51066 9.62299 1.50235 9.65252 1.50644 9.68629C1.68777 11.1831 2.31696 12.2524 3.18705 12.9543C4.06593 13.6632 5.24713 14.0419 6.59481 14.0419C8.071 14.0419 9.34667 13.5882 10.2469 12.7414C11.0115 12.0222 11.5598 10.9686 11.7007 9.52737H1.70412ZM6.97102 8.02254H8.97746V6.0161H6.97102V8.02254ZM6.97102 4.51127H8.97746V2.50483H6.97102V4.51127Z" fill="currentColor"/>
	</symbol>

	<symbol id="icon-bash" viewBox="0 0 24 24" fill="none" stroke="currentColor" stroke-width="2" stroke-linecap="round" stroke-linejoin="round">
		<rect x="3" y="4" width="18" height="16" rx="2"/>
		<path d="m7 9 3 3-3 3"/>
		<path d="M13 15h4"/>
	</symbol>

	<symbol id="icon-linux-systems" viewBox="0 0 24 24" fill="none">
		<path d="M14 21H5C4.06812 21 3.60218 21 3.23463 20.8478C2.74458 20.6448 2.35523 20.2554 2.15224 19.7654C2 19.3978 2 18.9319 2 18C2 17.0681 2 16.6022 2.15224 16.2346C2.35523 15.7446 2.74458 15.3552 3.23463 15.1522C3.60218 15 4.06812 15 5 15H19C19.9319 15 20.3978 15 20.7654 15.1522C21.2554 15.3552 21.6448 15.7446 21.8478 16.2346C22 16.6022 22 17.0681 22 18C22 18.9319 22 19.3978 21.8478 19.7654C21.6448 20.2554 21.2554 20.6448 20.7654 20.8478C20.3978 21 19.9319 21 19 21H18" stroke="currentColor" stroke-width="1.5" stroke-linecap="round"/>
		<path d="M2 12C2 11.0681 2 10.6022 2.15224 10.2346C2.35523 9.74458 2.74458 9.35523 3.23463 9.15224C3.60218 9 4.06812 9 5 9H19C19.9319 9 20.3978 9 20.7654 9.15224C21.2554 9.35523 21.6448 9.74458 21.8478 10.2346C22 10.6022 22 11.0681 22 12C22 12.9319 22 13.3978 21.8478 13.7654C21.6448 14.2554 21.2554 14.6448 20.7654 14.8478C20.3978 15 19.9319 15 19 15H5C4.06812 15 3.60218 15 3.23463 14.8478C2.74458 14.6448 2.35523 14.2554 2.15224 13.7654C2 13.3978 2 12.9319 2 12Z" stroke="currentColor" stroke-width="1.5"/>
		<path d="M10 3H19C19.9319 3 20.3978 3 20.7654 3.15224C21.2554 3.35523 21.6448 3.74458 21.8478 4.23463C22 4.60218 22 5.06812 22 6C22 6.93188 22 7.39782 21.8478 7.76537C21.6448 8.25542 21.2554 8.64477 20.7654 8.84776C20.3978 9 19.9319 9 19 9H5C4.06812 9 3.60218 9 3.23463 8.84776C2.74458 8.64477 2.35523 8.25542 2.15224 7.76537C2 7.39782 2 6.93188 2 6C2 5.06812 2 4.60218 2.15224 4.23463C2.35523 3.74458 2.74458 3.35523 3.23463 3.15224C3.60218 3 4.06812 3 5 3H6" stroke="currentColor" stroke-width="1.5" stroke-linecap="round"/>
		<circle cx="5" cy="12" r="1" fill="currentColor"/>
		<circle cx="5" cy="6" r="1" fill="currentColor"/>
		<circle cx="5" cy="18" r="1" fill="currentColor"/>
	</symbol>

    <symbol id="icon-cicd" viewBox="0 0 36 36" fill="currentColor">
		<path d="M23.53,19.81a7.45,7.45,0,0,1-1.65-.18,10.48,10.48,0,0,1,.72,2.13c.3,0,.61,0,.93,0a9.52,9.52,0,0,0,3-.49l-.93-1.81A7.67,7.67,0,0,1,23.53,19.81Z"/>
		<path d="M18.36,17.87,18,17.49a7.4,7.4,0,0,1-2.2-5.92,7.31,7.31,0,0,1,1.54-4L17.26,9A1,1,0,0,0,18.17,10h.09a1,1,0,0,0,1-.91L19.6,5a1,1,0,0,0-.29-.79A1,1,0,0,0,18.52,4l-4.09.35a1,1,0,0,0,.17,2l1.29-.11a9.45,9.45,0,0,0-2.05,5.32,9.28,9.28,0,0,0,2.67,7.26l.31.37a7.33,7.33,0,0,1,2.06,4.91,7.39,7.39,0,0,1-.26,2.47l1.8.91a8.76,8.76,0,0,0,.45-3.51A9.28,9.28,0,0,0,18.36,17.87Z"/>
		<path d="M32.4,17.91,31.19,18A9.65,9.65,0,0,0,23.53,2.45a9.33,9.33,0,0,0-3,.49l.91,1.8a7.67,7.67,0,0,1,9.76,7.39,7.58,7.58,0,0,1-1.65,4.72l.1-1.54a1,1,0,1,0-2-.13l-.28,4.08a1,1,0,0,0,.31.78.94.94,0,0,0,.69.28h.1l4.08-.42a1,1,0,0,0,.9-1.1A1,1,0,0,0,32.4,17.91Z"/>
		<path d="M4.07,20.44h.08l4.09-.35a1,1,0,1,0-.17-2l-1.39.12a7.63,7.63,0,0,1,4.52-1.49,7.9,7.9,0,0,1,1.63.18,10.23,10.23,0,0,1-.71-2.13c-.3,0-.61,0-.92,0a9.66,9.66,0,0,0-5.9,2l.12-1.31a1,1,0,0,0-.92-1.08,1,1,0,0,0-1.08.91l-.35,4.08a1,1,0,0,0,1,1.08Z"/>
		<path d="M18.42,28.23l-4.09.27a1,1,0,0,0,.13,2L16,30.39a7.71,7.71,0,0,1-12.54-6,7.6,7.6,0,0,1,.29-2L2,21.46a9.59,9.59,0,0,0-.47,2.95A9.7,9.7,0,0,0,17.19,32l-.12,1.18a1,1,0,0,0,.89,1.1h.11a1,1,0,0,0,1-.9l.42-4.06a1,1,0,0,0-1.06-1.1Z"/>
	</symbol>

	<symbol id="icon-layers" viewBox="0 0 24 24" fill="none">
		<path fill-rule="evenodd" clip-rule="evenodd" d="M12 4.75C10.9396 4.75 10.0907 5.07796 8.06584 5.88789L5.25737 7.01128C4.24694 7.41545 3.54677 7.69659 3.09295 7.93451C3.0486 7.95776 3.00863 7.97959 2.97267 8C3.00863 8.02041 3.0486 8.04224 3.09295 8.06549C3.54677 8.30341 4.24694 8.58455 5.25737 8.98872L8.06584 10.1121C10.0907 10.922 10.9396 11.25 12 11.25C13.0604 11.25 13.9093 10.922 15.9342 10.1121L18.7426 8.98872C19.7531 8.58455 20.4532 8.30341 20.9071 8.06549C20.9514 8.04224 20.9914 8.02041 21.0273 8C20.9914 7.97959 20.9514 7.95776 20.9071 7.93451C20.4532 7.69659 19.7531 7.41545 18.7426 7.01128L15.9342 5.88789C13.9093 5.07796 13.0604 4.75 12 4.75ZM7.62442 4.4489C9.50121 3.69796 10.6208 3.25 12 3.25C13.3792 3.25 14.4988 3.69796 16.3756 4.4489C16.4138 4.4642 16.4524 4.47962 16.4912 4.49517L19.3451 5.6367C20.2996 6.01851 21.0728 6.32776 21.6035 6.60601C21.8721 6.74683 22.1323 6.90648 22.333 7.09894C22.5392 7.29668 22.75 7.59658 22.75 8C22.75 8.40342 22.5392 8.70332 22.333 8.90106C22.1323 9.09352 21.8721 9.25317 21.6035 9.39399C21.2519 9.57835 20.7938 9.77632 20.247 10C20.7938 10.2237 21.2519 10.4216 21.6035 10.606C21.8721 10.7468 22.1323 10.9065 22.333 11.0989C22.5392 11.2967 22.75 11.5966 22.75 12C22.75 12.4034 22.5392 12.7033 22.333 12.9011C22.1323 13.0935 21.8721 13.2532 21.6035 13.394C21.2519 13.5784 20.7938 13.7763 20.247 14C20.7938 14.2237 21.2519 14.4216 21.6035 14.606C21.8721 14.7468 22.1323 14.9065 22.333 15.0989C22.5392 15.2967 22.75 15.5966 22.75 16C22.75 16.4034 22.5392 16.7033 22.333 16.9011C22.1323 17.0935 21.8721 17.2532 21.6035 17.394C21.0728 17.6722 20.2997 17.9815 19.3451 18.3633L16.4912 19.5048C16.4524 19.5204 16.4138 19.5358 16.3756 19.5511C14.4988 20.302 13.3792 20.75 12 20.75C10.6208 20.75 9.50121 20.302 7.62443 19.5511C7.58619 19.5358 7.54763 19.5204 7.50875 19.5048L4.6549 18.3633C3.70034 17.9815 2.9272 17.6722 2.39647 17.394C2.12786 17.2532 1.86765 17.0935 1.66701 16.9011C1.46085 16.7033 1.25 16.4034 1.25 16C1.25 15.5966 1.46085 15.2967 1.66701 15.0989C1.86765 14.9065 2.12786 14.7468 2.39647 14.606C2.74813 14.4216 3.20621 14.2237 3.75299 14C3.20621 13.7763 2.74813 13.5784 2.39647 13.394C2.12786 13.2532 1.86765 13.0935 1.66701 12.9011C1.46085 12.7033 1.25 12.4034 1.25 12C1.25 11.5966 1.46085 11.2967 1.66701 11.0989C1.86765 10.9065 2.12786 10.7468 2.39647 10.606C2.74813 10.4216 3.20621 10.2237 3.75299 10C3.20621 9.77632 2.74813 9.57835 2.39647 9.39399C2.12786 9.25317 1.86765 9.09352 1.66701 8.90106C1.46085 8.70332 1.25 8.40342 1.25 8C1.25 7.59658 1.46085 7.29668 1.66701 7.09894C1.86765 6.90648 2.12786 6.74683 2.39647 6.60601C2.92721 6.32776 3.70037 6.01851 4.65496 5.63669L7.50875 4.49517C7.54763 4.47962 7.58618 4.4642 7.62442 4.4489ZM5.76613 10.8078L5.25737 11.0113C4.24694 11.4154 3.54677 11.6966 3.09295 11.9345C3.0486 11.9578 3.00863 11.9796 2.97268 12C3.00863 12.0204 3.0486 12.0422 3.09295 12.0655C3.54677 12.3034 4.24694 12.5845 5.25737 12.9887L8.06584 14.1121C10.0907 14.922 10.9396 15.25 12 15.25C13.0604 15.25 13.9093 14.922 15.9342 14.1121L18.7426 12.9887C19.7531 12.5845 20.4532 12.3034 20.9071 12.0655C20.9514 12.0422 20.9914 12.0204 21.0273 12C20.9914 11.9796 20.9514 11.9578 20.9071 11.9345C20.4532 11.6966 19.7531 11.4154 18.7426 11.0113L18.2339 10.8078L16.4912 11.5048C16.4524 11.5204 16.4138 11.5358 16.3756 11.5511C14.4988 12.302 13.3792 12.75 12 12.75C10.6208 12.75 9.50121 12.302 7.62443 11.5511C7.58619 11.5358 7.54763 11.5204 7.50875 11.5048L5.76613 10.8078ZM5.76613 14.8078L5.25737 15.0113C4.24694 15.4154 3.54678 15.6966 3.09295 15.9345C3.0486 15.9578 3.00863 15.9796 2.97268 16C3.00863 16.0204 3.0486 16.0422 3.09295 16.0655C3.54677 16.3034 4.24694 16.5845 5.25737 16.9887L8.06584 18.1121C10.0907 18.922 10.9396 19.25 12 19.25C13.0604 19.25 13.9093 18.922 15.9342 18.1121L18.7426 16.9887C19.7531 16.5845 20.4532 16.3034 20.9071 16.0655C20.9514 16.0422 20.9914 16.0204 21.0273 16C20.9914 15.9796 20.9514 15.9578 20.9071 15.9345C20.4532 15.6966 19.7531 15.4154 18.7426 15.0113L18.2339 14.8078L16.4912 15.5048C16.4524 15.5204 16.4138 15.5358 16.3756 15.5511C14.4988 16.302 13.3792 16.75 12 16.75C10.6208 16.75 9.50121 16.302 7.62443 15.5511C7.58619 15.5358 7.54763 15.5204 7.50875 15.5048L5.76613 14.8078Z" fill="currentColor"/>
	</symbol>

	<symbol id="icon-teamwork" viewBox="0 0 32 32" fill="none">
		<path d="M25,26a5,5,0,1,1,5-5A5.006,5.006,0,0,1,25,26Zm0-8a3,3,0,1,0,3,3A3,3,0,0,0,25,18Z" fill="currentColor"/>
		<path d="M22,32H20a1,1,0,0,1-.98-.8l-1-5a1,1,0,0,1,.533-1.091l3.6-1.8a1,1,0,1,1,.894,1.789L20.13,26.553,20.82,30H22a1,1,0,0,1,0,2Z" fill="currentColor"/>
		<path d="M30,32H26a1,1,0,0,1,0-2h3.18l.69-3.447L26.953,25.1a1,1,0,1,1,.894-1.789l3.6,1.8A1,1,0,0,1,31.98,26.2l-1,5A1,1,0,0,1,30,32Z" fill="currentColor"/>
		<path d="M7,26a5,5,0,1,1,5-5A5.006,5.006,0,0,1,7,26Zm0-8a3,3,0,1,0,3,3A3,3,0,0,0,7,18Z" fill="currentColor"/>
		<path d="M4,32H2a1,1,0,0,1-.98-.8l-1-5a1,1,0,0,1,.533-1.091l3.6-1.8A1,1,0,1,1,5.047,25.1L2.13,26.553,2.82,30H4a1,1,0,0,1,0,2Z" fill="currentColor"/>
		<path d="M12,32H8a1,1,0,0,1,0-2h3.18l.69-3.447L8.953,25.1a1,1,0,1,1,.894-1.789l3.6,1.8A1,1,0,0,1,13.98,26.2l-1,5A1,1,0,0,1,12,32Z" fill="currentColor"/>
		<path d="M16.706,16H15.294A2.3,2.3,0,0,1,13,13.706a.294.294,0,0,0-.441-.255,2.294,2.294,0,0,1-3.135-.84l-.7-1.222a2.3,2.3,0,0,1,.84-3.134.295.295,0,0,0,0-.51,2.3,2.3,0,0,1-.84-3.134l.705-1.222a2.294,2.294,0,0,1,3.135-.84A.294.294,0,0,0,13,2.294,2.3,2.3,0,0,1,15.294,0h1.412A2.3,2.3,0,0,1,19,2.294a.284.284,0,0,0,.147.255.291.291,0,0,0,.294,0,2.294,2.294,0,0,1,3.135.84l.7,1.222a2.3,2.3,0,0,1-.84,3.134.295.295,0,0,0,0,.51,2.3,2.3,0,0,1,.84,3.134l-.7,1.222a2.294,2.294,0,0,1-3.135.84.288.288,0,0,0-.294,0,.284.284,0,0,0-.147.255A2.3,2.3,0,0,1,16.706,16Zm-4-4.592A2.3,2.3,0,0,1,15,13.706a.294.294,0,0,0,.294.294h1.412A.294.294,0,0,0,17,13.706a2.294,2.294,0,0,1,3.441-1.987.281.281,0,0,0,.224.029.285.285,0,0,0,.178-.137l.706-1.222a.293.293,0,0,0-.108-.4,2.295,2.295,0,0,1,0-3.974.293.293,0,0,0,.108-.4h0l-.706-1.222a.285.285,0,0,0-.178-.137.289.289,0,0,0-.224.029A2.294,2.294,0,0,1,17,2.294.294.294,0,0,0,16.706,2H15.294A.294.294,0,0,0,15,2.294a2.294,2.294,0,0,1-3.441,1.987.289.289,0,0,0-.224-.029.285.285,0,0,0-.178.137l-.706,1.222a.293.293,0,0,0,.108.4,2.295,2.295,0,0,1,0,3.974.293.293,0,0,0-.108.4l.706,1.222a.285.285,0,0,0,.178.137.28.28,0,0,0,.224-.029A2.292,2.292,0,0,1,12.706,11.408Z" fill="currentColor"/>
		<path d="M16,10a2,2,0,1,1,2-2A2,2,0,0,1,16,10Zm0-2h0Zm0,0h0Zm0,0h0Zm0,0h0Zm0,0h0Zm0,0h0Zm0,0h0Zm0,0h0Z" fill="currentColor"/>
	</symbol>

	<symbol id="icon-communication" viewBox="0 0 24 24" fill="none">
		<path d="M10.8693 21.5102L11.5147 21.8922L10.8693 21.5102ZM11.1288 21.0719L10.4833 20.6899L11.1288 21.0719ZM8.87121 21.0719L9.51663 20.6899L9.51662 20.6899L8.87121 21.0719ZM9.13064 21.5102L8.48523 21.8922L9.13064 21.5102ZM2.30448 17.1308L2.99739 16.8438H2.99739L2.30448 17.1308ZM6.28931 19.585L6.31328 18.8354L6.28931 19.585ZM4.46927 19.2956L4.18225 19.9885H4.18225L4.46927 19.2956ZM17.6955 17.1308L18.3884 17.4178L18.3884 17.4178L17.6955 17.1308ZM13.7107 19.585L13.6867 18.8354L13.7107 19.585ZM15.5307 19.2956L15.8177 19.9885L15.5307 19.2956ZM16.09 6.58944L16.4819 5.94996V5.94996L16.09 6.58944ZM17.4106 7.91001L18.05 7.51814V7.51814L17.4106 7.91001ZM3.91001 6.58944L3.51813 5.94996V5.94996L3.91001 6.58944ZM2.58944 7.91001L1.94996 7.51814H1.94996L2.58944 7.91001ZM7.91637 19.8223L7.53453 20.4679H7.53453L7.91637 19.8223ZM11.5147 21.8922L11.7742 21.4539L10.4833 20.6899L10.2239 21.1282L11.5147 21.8922ZM8.22579 21.4539L8.48523 21.8922L9.77606 21.1282L9.51663 20.6899L8.22579 21.4539ZM10.2239 21.1282C10.1785 21.2049 10.0992 21.25 9.99998 21.25C9.90074 21.25 9.82147 21.2049 9.77606 21.1282L8.48523 21.8922C9.16217 23.0359 10.8378 23.0359 11.5147 21.8922L10.2239 21.1282ZM8.8 6.75H11.2V5.25H8.8V6.75ZM17.25 12.8V13.6H18.75V12.8H17.25ZM2.75 13.6V12.8H1.25V13.6H2.75ZM1.25 13.6C1.25 14.5217 1.24959 15.2504 1.2898 15.8397C1.33047 16.4357 1.41517 16.9436 1.61157 17.4178L2.99739 16.8438C2.88931 16.5828 2.82178 16.2573 2.78632 15.7376C2.75041 15.2112 2.75 14.5422 2.75 13.6H1.25ZM6.31328 18.8354C5.52102 18.81 5.09046 18.7411 4.75628 18.6027L4.18225 19.9885C4.77912 20.2357 5.43744 20.3081 6.26533 20.3346L6.31328 18.8354ZM1.61157 17.4178C2.09367 18.5817 3.01837 19.5064 4.18225 19.9885L4.75628 18.6027C3.95994 18.2728 3.32725 17.6401 2.99739 16.8438L1.61157 17.4178ZM17.25 13.6C17.25 14.5422 17.2496 15.2112 17.2137 15.7376C17.1782 16.2573 17.1107 16.5828 17.0026 16.8438L18.3884 17.4178C18.5848 16.9436 18.6695 16.4357 18.7102 15.8397C18.7504 15.2504 18.75 14.5217 18.75 13.6H17.25ZM13.7346 20.3346C14.5625 20.3081 15.2209 20.2357 15.8177 19.9885L15.2437 18.6027C14.9095 18.7411 14.479 18.81 13.6867 18.8354L13.7346 20.3346ZM17.0026 16.8438C16.6728 17.6401 16.0401 18.2728 15.2437 18.6027L15.8177 19.9885C16.9816 19.5064 17.9063 18.5817 18.3884 17.4178L17.0026 16.8438ZM11.2 6.75C12.5239 6.75 13.4641 6.75079 14.1953 6.82031C14.9154 6.88877 15.3548 7.01855 15.6981 7.22892L16.4819 5.94996C15.8633 5.57089 15.1671 5.40595 14.3373 5.32705C13.5187 5.24921 12.4949 5.25 11.2 5.25V6.75ZM18.75 12.8C18.75 11.5052 18.7508 10.4814 18.673 9.6627C18.5941 8.83288 18.4291 8.13673 18.05 7.51814L16.7711 8.30189C16.9814 8.64518 17.1112 9.08466 17.1797 9.80468C17.2492 10.5359 17.25 11.4761 17.25 12.8H18.75ZM15.6981 7.22892C16.1354 7.4969 16.5031 7.86458 16.7711 8.30189L18.05 7.51814C17.6584 6.879 17.121 6.34163 16.4819 5.94996L15.6981 7.22892ZM8.8 5.25C7.50515 5.25 6.48135 5.24921 5.66269 5.32705C4.83287 5.40595 4.13672 5.57089 3.51813 5.94996L4.30188 7.22892C4.64517 7.01855 5.08465 6.88877 5.80467 6.82031C6.53585 6.75079 7.47611 6.75 8.8 6.75V5.25ZM2.75 12.8C2.75 11.4761 2.75079 10.5359 2.82031 9.80468C2.88877 9.08466 3.01855 8.64518 3.22892 8.30189L1.94996 7.51814C1.57089 8.13673 1.40595 8.83288 1.32705 9.6627C1.24921 10.4814 1.25 11.5052 1.25 12.8H2.75ZM3.51813 5.94996C2.87899 6.34163 2.34162 6.879 1.94996 7.51814L3.22892 8.30189C3.4969 7.86458 3.86458 7.4969 4.30188 7.22892L3.51813 5.94996ZM9.51662 20.6899C9.31582 20.3506 9.13969 20.0516 8.96888 19.8164C8.78917 19.569 8.58327 19.3454 8.29822 19.1768L7.53453 20.4679C7.58064 20.4951 7.64427 20.5451 7.75524 20.6979C7.87511 20.863 8.01082 21.0907 8.2258 21.4539L9.51662 20.6899ZM6.26533 20.3346C6.71078 20.3489 6.99552 20.3587 7.21182 20.3851C7.41631 20.41 7.49305 20.4433 7.53453 20.4679L8.29822 19.1768C8.00853 19.0055 7.70371 18.9339 7.39344 18.8961C7.09498 18.8597 6.73177 18.8488 6.31328 18.8354L6.26533 20.3346ZM11.7742 21.4539C11.9891 21.0907 12.1249 20.863 12.2447 20.6979C12.3557 20.5451 12.4193 20.4951 12.4654 20.4679L11.7018 19.1768C11.4167 19.3454 11.2108 19.569 11.0311 19.8164C10.8603 20.0516 10.6841 20.3506 10.4833 20.6899L11.7742 21.4539ZM13.6867 18.8354C13.2682 18.8488 12.905 18.8597 12.6065 18.8961C12.2963 18.9339 11.9914 19.0055 11.7018 19.1768L12.4654 20.4679C12.5069 20.4433 12.5837 20.41 12.7881 20.3851C13.0044 20.3587 13.2892 20.3489 13.7346 20.3346L13.6867 18.8354Z" fill="currentColor"/>
		<path d="M21.7145 12.4351L22.4074 12.7221V12.7221L21.7145 12.4351ZM19.685 14.4646L19.972 15.1575H19.972L19.685 14.4646ZM20.2093 2.5526L19.8174 3.19208V3.19208L20.2093 2.5526ZM21.4473 3.79064L22.0868 3.39876V3.39876L21.4473 3.79064ZM8.79058 2.5526L8.3987 1.91312V1.91312L8.79058 2.5526ZM7.55255 3.79064L6.91307 3.39876H6.91307L7.55255 3.79064ZM13.3749 2.75H15.6249V1.25H13.3749V2.75ZM21.2499 8.37503V9.12503H22.7499V8.37503H21.2499ZM21.2499 9.12503C21.2499 10.0089 21.2495 10.6343 21.216 11.1258C21.1829 11.6106 21.1201 11.9101 21.0216 12.1481L22.4074 12.7221C22.5943 12.2709 22.6742 11.7891 22.7125 11.2279C22.7504 10.6735 22.7499 9.98841 22.7499 9.12503H21.2499ZM21.0216 12.1481C20.7171 12.8832 20.1331 13.4672 19.398 13.7717L19.972 15.1575C21.0747 14.7008 21.9507 13.8247 22.4074 12.7221L21.0216 12.1481ZM15.6249 2.75C16.867 2.75 17.7459 2.75079 18.4286 2.81571C19.1002 2.87956 19.5042 3.00013 19.8174 3.19208L20.6012 1.91312C20.0127 1.55247 19.352 1.39674 18.5706 1.32244C17.8004 1.24921 16.838 1.25 15.6249 1.25V2.75ZM22.7499 8.37503C22.7499 7.16201 22.7507 6.19958 22.6775 5.42935C22.6032 4.64796 22.4475 3.98729 22.0868 3.39876L20.8079 4.18251C20.9998 4.49574 21.1204 4.89973 21.1842 5.57133C21.2492 6.25408 21.2499 7.13296 21.2499 8.37503H22.7499ZM19.8174 3.19208C20.2211 3.43945 20.5605 3.77884 20.8079 4.18251L22.0868 3.39876C21.7158 2.79326 21.2067 2.28417 20.6012 1.91312L19.8174 3.19208ZM13.3749 1.25C12.1619 1.25 11.1995 1.24921 10.4293 1.32244C9.64789 1.39674 8.98723 1.55247 8.3987 1.91312L9.18245 3.19208C9.49568 3.00013 9.89967 2.87956 10.5713 2.81571C11.254 2.75079 12.1329 2.75 13.3749 2.75V1.25ZM8.3987 1.91312C7.7932 2.28417 7.28412 2.79326 6.91307 3.39876L8.19203 4.18251C8.43939 3.77884 8.77879 3.43945 9.18245 3.19208L8.3987 1.91312ZM7.78219 6.03896C7.83215 5.07858 7.95706 4.56594 8.19203 4.18251L6.91307 3.39876C6.47594 4.11209 6.33747 4.93717 6.28422 5.96104L7.78219 6.03896ZM18.0249 15.4848C18.7916 15.4593 19.4094 15.3906 19.972 15.1575L19.398 13.7717C19.096 13.8968 18.7039 13.9614 17.9751 13.9857L18.0249 15.4848Z" fill="currentColor"/>
		<path d="M6.50928 13H6.51828M10 13H10.009M13.491 13H13.5" stroke="currentColor" stroke-width="2" stroke-linecap="round" stroke-linejoin="round"/>
	</symbol>
</svg>
